<svg width="1584" height="396" viewBox="0 0 1584 396" fill="none" xmlns="http://www.w3.org/2000/svg">
<rect width="1584" height="396" fill="#F5F5F5"/>
<g id="Awesome banner" clip-path="url(#clip0_0_1)">
<rect width="1584" height="396" fill="url(#paint0_linear_0_1)"/>
<ellipse id="Ellipse 2" cx="323" cy="64" rx="285" ry="288" fill="url(#paint1_linear_0_1)" fill-opacity="0.1"/>
<g id="copyright">
<path d="M75.95 334.52L72.30 334.52L72.30 311.16L77.20 311.16L83.70 330.04Q83.60 329.02 83.50 327.62Q83.41 326.23 83.33 324.79Q83.25 323.35 83.25 322.23L83.25 311.16L86.90 311.16L86.90 334.52L82 334.52L75.57 315.64Q75.63 316.57 75.73 317.88Q75.82 319.19 75.89 320.57Q75.95 321.94 75.95 323.10L75.95 334.52M98.80 334.84Q96.46 334.84 94.67 333.96Q92.88 333.08 91.89 331.53Q90.90 329.98 90.90 327.93Q90.90 325.78 92.13 324.18Q93.36 322.58 95.34 322.17L95.34 322.10Q93.65 321.75 92.61 320.38Q91.57 319 91.57 317.11Q91.57 315.26 92.48 313.85Q93.39 312.44 95.02 311.64Q96.66 310.84 98.80 310.84Q100.94 310.84 102.59 311.64Q104.24 312.44 105.15 313.85Q106.06 315.26 106.06 317.11Q106.06 319 105.01 320.38Q103.95 321.75 102.26 322.10L102.26 322.17Q104.24 322.58 105.47 324.18Q106.70 325.78 106.70 327.93Q106.70 329.98 105.71 331.53Q104.72 333.08 102.93 333.96Q101.14 334.84 98.80 334.84M98.80 320.73Q100.30 320.73 101.23 319.82Q102.16 318.90 102.16 317.46Q102.16 315.99 101.23 315.08Q100.30 314.17 98.80 314.17Q97.30 314.17 96.37 315.08Q95.44 315.99 95.44 317.46Q95.44 318.90 96.37 319.82Q97.30 320.73 98.80 320.73M98.80 331.45Q100.56 331.45 101.68 330.42Q102.80 329.40 102.80 327.74Q102.80 326.04 101.68 325Q100.56 323.96 98.80 323.96Q97.04 323.96 95.92 325Q94.80 326.04 94.80 327.74Q94.80 329.40 95.92 330.42Q97.04 331.45 98.80 331.45M114.35 334.52L110.70 334.52L110.70 311.16L115.60 311.16L122.10 330.04Q122 329.02 121.90 327.62Q121.81 326.23 121.73 324.79Q121.65 323.35 121.65 322.23L121.65 311.16L125.30 311.16L125.30 334.52L120.40 334.52L113.97 315.64Q114.03 316.57 114.13 317.88Q114.22 319.19 114.29 320.57Q114.35 321.94 114.35 323.10" fill="white" fill-opacity="0.9"/>
<path d="M161.48 325.24L151.24 325.24L151.24 322.68L161.48 322.68" fill="white" fill-opacity="0.9"/>
<path d="M195.02 334.84Q191.82 334.84 189.96 333.05Q188.11 331.26 188.11 328.12L188.11 317.56Q188.11 314.42 189.96 312.63Q191.82 310.84 195.02 310.84Q198.15 310.84 200.01 312.65Q201.87 314.46 201.87 317.56L198.99 317.56Q198.99 315.58 197.95 314.50Q196.91 313.43 195.02 313.43Q193.13 313.43 192.06 314.50Q190.99 315.58 190.99 317.56L190.99 328.12Q190.99 330.10 192.06 331.18Q193.13 332.25 195.02 332.25Q196.91 332.25 197.95 331.18Q198.99 330.10 198.99 328.12L201.87 328.12Q201.87 331.22 200.01 333.03Q198.15 334.84 195.02 334.84" fill="white" fill-opacity="0.9"/>
<path d="M213.96 334.84Q210.83 334.84 209 333.02Q207.18 331.19 207.18 327.80L207.18 317.88Q207.18 314.49 209 312.66Q210.83 310.84 213.96 310.84Q217.10 310.84 218.92 312.66Q220.75 314.49 220.75 317.85L220.75 327.80Q220.75 331.19 218.92 333.02Q217.10 334.84 213.96 334.84M213.96 332.25Q215.85 332.25 216.86 331.18Q217.87 330.10 217.87 328.12L217.87 317.56Q217.87 315.58 216.86 314.50Q215.85 313.43 213.96 313.43Q212.11 313.43 211.08 314.50Q210.06 315.58 210.06 317.56L210.06 328.12Q210.06 330.10 211.08 331.18Q212.11 332.25 213.96 332.25" fill="white" fill-opacity="0.9"/>
<path d="M228.65 334.52L225.87 334.52L225.87 311.16L230.12 311.16L233.10 321.27L236.20 311.16L240.46 311.16L240.46 334.52L237.67 334.52L237.67 323.48Q237.67 321.91 237.72 319.88Q237.77 317.85 237.87 315.77Q237.96 313.69 238.09 312.02L234.31 324.09L231.82 324.09L228.20 312.31Q228.46 314.68 228.55 317.50Q228.65 320.31 228.65 323.48" fill="white" fill-opacity="0.9"/>
<path d="M247.85 334.52L245.07 334.52L245.07 311.16L249.32 311.16L252.30 321.27L255.40 311.16L259.66 311.16L259.66 334.52L256.87 334.52L256.87 323.48Q256.87 321.91 256.92 319.88Q256.97 317.85 257.07 315.77Q257.16 313.69 257.29 312.02L253.51 324.09L251.02 324.09L247.40 312.31Q247.66 314.68 247.75 317.50Q247.85 320.31 247.85 323.48" fill="white" fill-opacity="0.9"/>
<path d="M271.56 334.84Q268.30 334.84 266.57 333.03Q264.84 331.22 264.84 328.12L264.84 311.16L267.72 311.16L267.72 328.12Q267.72 330.04 268.67 331.16Q269.61 332.28 271.56 332.28Q273.48 332.28 274.44 331.16Q275.40 330.04 275.40 328.12L275.40 311.16L278.28 311.16L278.28 328.12Q278.28 331.26 276.57 333.05Q274.86 334.84 271.56 334.84" fill="white" fill-opacity="0.9"/>
<path d="M286.83 334.52L284.04 334.52L284.04 311.16L287.88 311.16L295.02 331.16Q294.95 330.36 294.87 329.19Q294.79 328.02 294.75 326.73Q294.70 325.43 294.70 324.28L294.70 311.16L297.48 311.16L297.48 334.52L293.64 334.52L286.54 314.52Q286.60 315.29 286.67 316.46Q286.73 317.62 286.78 318.92Q286.83 320.22 286.83 321.40" fill="white" fill-opacity="0.9"/>
<path d="M316.20 334.52L303.72 334.52L303.72 331.90L308.49 331.90L308.49 313.78L303.72 313.78L303.72 311.16L316.20 311.16L316.20 313.78L311.43 313.78L311.43 331.90L316.20 331.90" fill="white" fill-opacity="0.9"/>
<path d="M330.60 334.52L327.72 334.52L327.72 313.78L321.32 313.78L321.32 311.16L337 311.16L337 313.78L330.60 313.78" fill="white" fill-opacity="0.9"/>
<path d="M349.80 334.52L346.92 334.52L346.92 325.78L339.88 311.16L342.95 311.16L347.50 320.76Q347.88 321.56 348.11 322.12Q348.33 322.68 348.39 322.94Q348.46 322.68 348.70 322.12Q348.94 321.56 349.32 320.76L353.87 311.16L356.84 311.16L349.80 325.78" fill="white" fill-opacity="0.9"/>
<path d="M382.83 334.52L380.04 334.52L380.04 311.16L383.88 311.16L391.02 331.16Q390.95 330.36 390.87 329.19Q390.79 328.02 390.75 326.73Q390.70 325.43 390.70 324.28L390.70 311.16L393.48 311.16L393.48 334.52L389.64 334.52L382.54 314.52Q382.60 315.29 382.67 316.46Q382.73 317.62 382.78 318.92Q382.83 320.22 382.83 321.40" fill="white" fill-opacity="0.9"/>
<path d="M405.96 334.84Q402.83 334.84 401 333.02Q399.18 331.19 399.18 327.80L399.18 317.88Q399.18 314.49 401 312.66Q402.83 310.84 405.96 310.84Q409.10 310.84 410.92 312.66Q412.75 314.49 412.75 317.85L412.75 327.80Q412.75 331.19 410.92 333.02Q409.10 334.84 405.96 334.84M405.96 332.25Q407.85 332.25 408.86 331.18Q409.87 330.10 409.87 328.12L409.87 317.56Q409.87 315.58 408.86 314.50Q407.85 313.43 405.96 313.43Q404.11 313.43 403.08 314.50Q402.06 315.58 402.06 317.56L402.06 328.12Q402.06 330.10 403.08 331.18Q404.11 332.25 405.96 332.25" fill="white" fill-opacity="0.9"/>
<path d="M424.55 334.52L418.51 334.52L418.51 311.16L424.55 311.16Q426.83 311.16 428.47 312.02Q430.12 312.89 431.03 314.46Q431.95 316.02 431.95 318.17L431.95 327.48Q431.95 329.62 431.03 331.21Q430.12 332.79 428.47 333.66Q426.83 334.52 424.55 334.52M421.39 313.72L421.39 331.96L424.55 331.96Q426.67 331.96 427.87 330.78Q429.07 329.59 429.07 327.48L429.07 318.17Q429.07 316.09 427.87 314.90Q426.67 313.72 424.55 313.72" fill="white" fill-opacity="0.9"/>
<path d="M451.40 334.52L437.96 334.52L437.96 311.16L451.40 311.16L451.40 313.78L440.81 313.78L440.81 321.02L450.28 321.02L450.28 323.58L440.81 323.58L440.81 331.90L451.40 331.90" fill="white" fill-opacity="0.9"/>
<path d="M463.69 334.84Q460.30 334.84 458.28 333.05Q456.27 331.26 456.27 328.12L459.15 328.12Q459.15 330.07 460.39 331.18Q461.64 332.28 463.69 332.28Q465.67 332.28 466.86 331.13Q468.04 329.98 468.04 328.12Q468.04 326.71 467.29 325.67Q466.54 324.63 465.13 324.25L461.58 323.26Q459.37 322.62 458.11 320.97Q456.84 319.32 456.84 317.08Q456.84 315.22 457.67 313.82Q458.51 312.41 460.01 311.62Q461.51 310.84 463.47 310.84Q465.45 310.84 466.97 311.62Q468.49 312.41 469.35 313.80Q470.22 315.19 470.22 317.02L467.34 317.02Q467.34 315.42 466.25 314.41Q465.16 313.40 463.47 313.40Q461.77 313.40 460.71 314.41Q459.66 315.42 459.66 317.02Q459.66 318.30 460.35 319.21Q461.03 320.12 462.28 320.47L465.93 321.50Q468.27 322.14 469.56 323.91Q470.86 325.69 470.86 328.12Q470.86 331.19 468.91 333.02Q466.95 334.84 463.69 334.84" fill="white" fill-opacity="0.9"/>
</g>
<path d="M73.41 197.64L71.20 197.64L75.76 180.12L78.66 180.12L83.20 197.64L81.02 197.64L79.86 192.98L74.56 192.98L73.41 197.64M76.34 185.74L74.99 191.16L79.41 191.16L78.06 185.76Q77.68 184.22 77.46 183.19Q77.25 182.16 77.20 181.85Q77.15 182.16 76.94 183.19Q76.72 184.22 76.34 185.74" fill="white" fill-opacity="0.7"/>
<path d="M88.77 197.64L86.61 197.64L86.61 180.12L92.25 180.12Q94.70 180.12 96.15 181.52Q97.60 182.93 97.60 185.28Q97.60 187.63 96.15 189.04Q94.70 190.44 92.25 190.44L88.77 190.44L88.77 197.64M88.77 182.06L88.77 188.50L92.25 188.50Q93.66 188.50 94.52 187.62Q95.37 186.74 95.37 185.28Q95.37 183.79 94.52 182.93Q93.66 182.06 92.25 182.06" fill="white" fill-opacity="0.7"/>
<path d="M110.68 197.64L101.32 197.64L101.32 195.67L104.90 195.67L104.90 182.09L101.32 182.09L101.32 180.12L110.68 180.12L110.68 182.09L107.10 182.09L107.10 195.67L110.68 195.67" fill="white" fill-opacity="0.7"/>
<path d="M131.97 201.96L129.81 201.96L129.81 184.44L131.97 184.44L131.97 186.96L131.99 186.96Q132.16 185.66 133.12 184.93Q134.08 184.20 135.57 184.20Q137.56 184.20 138.74 185.51Q139.91 186.82 139.91 189.10L139.91 192.96Q139.91 195.24 138.74 196.56Q137.56 197.88 135.57 197.88Q134.08 197.88 133.12 197.14Q132.16 196.39 131.99 195.12L131.92 195.12L131.97 198.12L131.97 201.96M134.85 196.01Q136.22 196.01 136.98 195.29Q137.75 194.57 137.75 192.96L137.75 189.12Q137.75 187.49 136.98 186.78Q136.22 186.07 134.85 186.07Q133.53 186.07 132.75 186.91Q131.97 187.75 131.97 189.24L131.97 192.84Q131.97 194.33 132.75 195.17Q133.53 196.01 134.85 196.01" fill="white" fill-opacity="0.7"/>
<path d="M146.85 197.64L144.69 197.64L144.69 184.44L146.85 184.44L146.85 186.96L146.90 186.96Q147.06 185.69 147.98 184.94Q148.89 184.20 150.42 184.20Q152.49 184.20 153.60 185.44Q154.72 186.67 154.72 188.95L154.72 190.08L152.56 190.08L152.56 188.95Q152.56 186.07 149.75 186.07Q148.34 186.07 147.59 186.89Q146.85 187.70 146.85 189.24" fill="white" fill-opacity="0.7"/>
<path d="M163.60 197.83Q161.22 197.83 159.82 196.44Q158.42 195.05 158.42 192.55L158.42 189.53Q158.42 187.01 159.81 185.63Q161.20 184.25 163.60 184.25QNaN 184.25 167.39 185.63Q168.78 187.01 168.78 189.53L168.78 192.55Q168.78 195.05 167.38 196.44Q165.98 197.83 163.60 197.83M163.60 195.91Q165.02 195.91 165.82 195.12Q166.62 194.33 166.62 192.79L166.62 189.29Q166.62 187.75 165.82 186.96Q165.02 186.17 163.60 186.17Q162.21 186.17 161.39 186.96Q160.58 187.75 160.58 189.29L160.58 192.79Q160.58 194.33 161.39 195.12Q162.21 195.91 163.60 195.91" fill="white" fill-opacity="0.7"/>
<path d="M179.42 197.64L176.58 197.64L172.10 184.44L174.42 184.44L177.30 193.32Q177.57 194.11 177.76 194.84Q177.95 195.58 178.05 195.98Q178.17 195.58 178.34 194.84Q178.50 194.11 178.74 193.32L181.62 184.44L183.90 184.44" fill="white" fill-opacity="0.7"/>
<path d="M198.52 197.64L187.24 197.64L187.24 195.67L191.92 195.67L191.92 186.41L187.72 186.41L187.72 184.44L194.08 184.44L194.08 195.67L198.52 195.67L198.52 197.64M192.76 182.06Q191.97 182.06 191.51 181.66Q191.06 181.25 191.06 180.55Q191.06 179.83 191.51 179.41Q191.97 178.99 192.76 178.99Q193.55 178.99 194.01 179.41Q194.46 179.83 194.46 180.55Q194.46 181.25 194.01 181.66Q193.55 182.06 192.76 182.06" fill="white" fill-opacity="0.7"/>
<path d="M206.03 197.88Q204.06 197.88 202.88 196.56Q201.69 195.24 201.69 192.98L201.69 189.12Q201.69 186.84 202.86 185.52Q204.04 184.20 206.03 184.20Q207.52 184.20 208.49 184.94Q209.46 185.69 209.66 186.96L209.68 186.96L209.63 183.96L209.63 180.12L211.79 180.12L211.79 197.64L209.63 197.64L209.63 195.12L209.61 195.12Q209.44 196.42 208.48 197.15Q207.52 197.88 206.03 197.88M206.75 196.01Q208.10 196.01 208.86 195.17Q209.63 194.33 209.63 192.84L209.63 189.24Q209.63 187.75 208.86 186.91Q208.10 186.07 206.75 186.07Q205.38 186.07 204.62 186.78Q203.85 187.49 203.85 189.12L203.85 192.96Q203.85 194.57 204.62 195.29Q205.38 196.01 206.75 196.01" fill="white" fill-opacity="0.7"/>
<path d="M227.32 197.64L216.04 197.64L216.04 195.67L220.72 195.67L220.72 186.41L216.52 186.41L216.52 184.44L222.88 184.44L222.88 195.67L227.32 195.67L227.32 197.64M221.56 182.06Q220.77 182.06 220.31 181.66Q219.86 181.25 219.86 180.55Q219.86 179.83 220.31 179.41Q220.77 178.99 221.56 178.99Q222.35 178.99 222.81 179.41Q223.26 179.83 223.26 180.55Q223.26 181.25 222.81 181.66Q222.35 182.06 221.56 182.06" fill="white" fill-opacity="0.7"/>
<path d="M232.77 197.64L230.61 197.64L230.61 184.44L232.77 184.44L232.77 186.96L232.79 186.96Q232.96 185.64 233.87 184.92Q234.78 184.20 236.30 184.20Q238.29 184.20 239.46 185.42Q240.64 186.65 240.64 188.76L240.64 197.64L238.48 197.64L238.48 189.14Q238.48 187.63 237.72 186.83Q236.97 186.02 235.67 186.02Q234.33 186.02 233.55 186.86Q232.77 187.70 232.77 189.24" fill="white" fill-opacity="0.7"/>
<path d="M250.36 201.96L246.66 201.96L246.66 199.99L250.38 199.99Q251.51 199.99 252.16 199.36Q252.81 198.72 252.81 197.64L252.81 196.44L252.86 194.28L252.78 194.28Q252.59 195.46 251.66 196.09Q250.72 196.73 249.30 196.73Q247.26 196.73 246.09 195.43Q244.91 194.14 244.91 191.88L244.91 189.10Q244.91 186.84 246.09 185.52Q247.26 184.20 249.30 184.20Q250.72 184.20 251.66 184.87Q252.59 185.54 252.78 186.72L252.83 186.72L252.83 184.44L254.97 184.44L254.97 197.64Q254.97 199.63 253.73 200.80Q252.50 201.96 250.36 201.96M249.95 194.93Q251.30 194.93 252.06 194.09Q252.83 193.25 252.83 191.76L252.83 189.24Q252.83 187.75 252.06 186.91Q251.30 186.07 249.95 186.07Q248.58 186.07 247.83 186.86Q247.07 187.66 247.07 189L247.07 192Q247.07 193.34 247.83 194.14Q248.58 194.93 249.95 194.93" fill="white" fill-opacity="0.7"/>
<path d="M275.06 197.64L273.04 197.64L273.04 184.44L274.91 184.44L274.91 186.19L274.96 186.19Q275.08 185.30 275.67 184.75Q276.26 184.20 277.17 184.20Q278.03 184.20 278.63 184.70Q279.23 185.21 279.50 186.07L279.52 186.07Q279.69 185.21 280.28 184.70Q280.86 184.20 281.78 184.20Q283.05 184.20 283.80 185.15Q284.56 186.10 284.56 187.61L284.56 197.64L282.54 197.64L282.54 187.58Q282.54 186.79 282.16 186.32Q281.78 185.86 281.10 185.86Q280.46 185.86 280.07 186.31Q279.69 186.77 279.69 187.56L279.69 197.64L277.91 197.64L277.91 187.58Q277.91 186.79 277.53 186.32Q277.14 185.86 276.50 185.86Q275.82 185.86 275.44 186.31Q275.06 186.77 275.06 187.56" fill="white" fill-opacity="0.7"/>
<path d="M293.20 197.88Q290.87 197.88 289.44 196.48Q288.02 195.07 288.02 192.60L288.02 189.48Q288.02 187.01 289.44 185.60Q290.87 184.20 293.20 184.20Q294.76 184.20 295.92 184.82Q297.09 185.45 297.74 186.58Q298.38 187.70 298.38 189.24L298.38 191.59L290.13 191.59L290.13 192.84Q290.13 194.30 290.97 195.16Q291.81 196.01 293.20 196.01Q294.40 196.01 295.18 195.54Q295.96 195.07 296.13 194.28L298.29 194.28Q298.07 195.94 296.68 196.91Q295.29 197.88 293.20 197.88M290.13 189.24L290.13 189.91L296.27 189.91L296.27 189.24Q296.27 187.68 295.47 186.83Q294.66 185.98 293.20 185.98Q291.74 185.98 290.93 186.83Q290.13 187.68 290.13 189.24" fill="white" fill-opacity="0.7"/>
<path d="M312.76 197.64L308.92 197.64Q307.29 197.64 306.30 196.69Q305.32 195.74 305.32 194.16L305.32 186.41L301.53 186.41L301.53 184.44L305.32 184.44L305.32 180.72L307.48 180.72L307.48 184.44L312.88 184.44L312.88 186.41L307.48 186.41L307.48 194.16Q307.48 194.83 307.88 195.25Q308.27 195.67 308.92 195.67L312.76 195.67" fill="white" fill-opacity="0.7"/>
<path d="M320.85 197.88Q318.81 197.88 317.61 196.74Q316.41 195.60 316.41 193.75Q316.41 192.53 316.96 191.62Q317.51 190.70 318.50 190.19Q319.48 189.67 320.75 189.67L324.83 189.67L324.83 188.64Q324.83 186.07 322.02 186.07Q320.78 186.07 320.01 186.53Q319.24 186.98 319.19 187.80L317.03 187.80Q317.15 186.24 318.48 185.22Q319.82 184.20 322.02 184.20Q324.42 184.20 325.71 185.35Q326.99 186.50 326.99 188.57L326.99 197.64L324.86 197.64L324.86 195.24L324.81 195.24Q324.62 196.46 323.58 197.17Q322.55 197.88 320.85 197.88M321.38 196.06Q322.96 196.06 323.90 195.29Q324.83 194.52 324.83 193.20L324.83 191.35L320.99 191.35Q319.94 191.35 319.28 191.99Q318.62 192.62 318.62 193.68Q318.62 194.78 319.35 195.42Q320.08 196.06 321.38 196.06" fill="white" fill-opacity="0.7"/>
<path d="M335.63 197.88Q333.66 197.88 332.48 196.56Q331.29 195.24 331.29 192.98L331.29 189.12Q331.29 186.84 332.46 185.52Q333.64 184.20 335.63 184.20Q337.12 184.20 338.09 184.94Q339.06 185.69 339.26 186.96L339.28 186.96L339.23 183.96L339.23 180.12L341.39 180.12L341.39 197.64L339.23 197.64L339.23 195.12L339.21 195.12Q339.04 196.42 338.08 197.15Q337.12 197.88 335.63 197.88M336.35 196.01Q337.70 196.01 338.46 195.17Q339.23 194.33 339.23 192.84L339.23 189.24Q339.23 187.75 338.46 186.91Q337.70 186.07 336.35 186.07Q334.98 186.07 334.22 186.78Q333.45 187.49 333.45 189.12L333.45 192.96Q333.45 194.57 334.22 195.29Q334.98 196.01 336.35 196.01" fill="white" fill-opacity="0.7"/>
<path d="M349.65 197.88Q347.61 197.88 346.41 196.74Q345.21 195.60 345.21 193.75Q345.21 192.53 345.76 191.62Q346.31 190.70 347.30 190.19Q348.28 189.67 349.55 189.67L353.63 189.67L353.63 188.64Q353.63 186.07 350.82 186.07Q349.58 186.07 348.81 186.53Q348.04 186.98 347.99 187.80L345.83 187.80Q345.95 186.24 347.28 185.22Q348.62 184.20 350.82 184.20Q353.22 184.20 354.51 185.35Q355.79 186.50 355.79 188.57L355.79 197.64L353.66 197.64L353.66 195.24L353.61 195.24Q353.42 196.46 352.38 197.17Q351.35 197.88 349.65 197.88M350.18 196.06Q351.76 196.06 352.70 195.29Q353.63 194.52 353.63 193.20L353.63 191.35L349.79 191.35Q348.74 191.35 348.08 191.99Q347.42 192.62 347.42 193.68Q347.42 194.78 348.15 195.42Q348.88 196.06 350.18 196.06" fill="white" fill-opacity="0.7"/>
<path d="M370.36 197.64L366.52 197.64Q364.89 197.64 363.90 196.69Q362.92 195.74 362.92 194.16L362.92 186.41L359.13 186.41L359.13 184.44L362.92 184.44L362.92 180.72L365.08 180.72L365.08 184.44L370.48 184.44L370.48 186.41L365.08 186.41L365.08 194.16Q365.08 194.83 365.48 195.25Q365.87 195.67 366.52 195.67L370.36 195.67" fill="white" fill-opacity="0.7"/>
<path d="M378.45 197.88Q376.41 197.88 375.21 196.74Q374.01 195.60 374.01 193.75Q374.01 192.53 374.56 191.62Q375.11 190.70 376.10 190.19Q377.08 189.67 378.35 189.67L382.43 189.67L382.43 188.64Q382.43 186.07 379.62 186.07Q378.38 186.07 377.61 186.53Q376.84 186.98 376.79 187.80L374.63 187.80Q374.75 186.24 376.08 185.22Q377.42 184.20 379.62 184.20Q382.02 184.20 383.31 185.35Q384.59 186.50 384.59 188.57L384.59 197.64L382.46 197.64L382.46 195.24L382.41 195.24Q382.22 196.46 381.18 197.17Q380.15 197.88 378.45 197.88M378.98 196.06Q380.56 196.06 381.50 195.29Q382.43 194.52 382.43 193.20L382.43 191.35L378.59 191.35Q377.54 191.35 376.88 191.99Q376.22 192.62 376.22 193.68Q376.22 194.78 376.95 195.42Q377.68 196.06 378.98 196.06" fill="white" fill-opacity="0.7"/>
<path d="M414.52 197.64L403.24 197.64L403.24 195.67L407.92 195.67L407.92 186.41L403.72 186.41L403.72 184.44L410.08 184.44L410.08 195.67L414.52 195.67L414.52 197.64M408.76 182.06Q407.97 182.06 407.51 181.66Q407.06 181.25 407.06 180.55Q407.06 179.83 407.51 179.41Q407.97 178.99 408.76 178.99Q409.55 178.99 410.01 179.41Q410.46 179.83 410.46 180.55Q410.46 181.25 410.01 181.66Q409.55 182.06 408.76 182.06" fill="white" fill-opacity="0.7"/>
<path d="M419.97 197.64L417.81 197.64L417.81 184.44L419.97 184.44L419.97 186.96L419.99 186.96Q420.16 185.64 421.07 184.92Q421.98 184.20 423.50 184.20Q425.49 184.20 426.66 185.42Q427.84 186.65 427.84 188.76L427.84 197.64L425.68 197.64L425.68 189.14Q425.68 187.63 424.92 186.83Q424.17 186.02 422.87 186.02Q421.53 186.02 420.75 186.86Q419.97 187.70 419.97 189.24" fill="white" fill-opacity="0.7"/>
<path d="M437.32 197.64L435.16 197.64L435.16 188.21L431.32 188.21L431.32 186.24L435.16 186.24L435.16 183.48Q435.16 181.92 436.14 181.02Q437.13 180.12 438.86 180.12L442.72 180.12L442.72 182.09L438.86 182.09Q437.32 182.09 437.32 183.48L437.32 186.24L442.72 186.24L442.72 188.21L437.32 188.21" fill="white" fill-opacity="0.7"/>
<path d="M451.60 197.83Q449.22 197.83 447.82 196.44Q446.42 195.05 446.42 192.55L446.42 189.53Q446.42 187.01 447.81 185.63Q449.20 184.25 451.60 184.25Q454 184.25 455.39 185.63Q456.78 187.01 456.78 189.53L456.78 192.55Q456.78 195.05 455.38 196.44Q453.98 197.83 451.60 197.83M451.60 195.91Q453.02 195.91 453.82 195.12Q454.62 194.33 454.62 192.79L454.62 189.29Q454.62 187.75 453.82 186.96Q453.02 186.17 451.60 186.17Q450.21 186.17 449.39 186.96Q448.58 187.75 448.58 189.29L448.58 192.79Q448.58 194.33 449.39 195.12Q450.21 195.91 451.60 195.91" fill="white" fill-opacity="0.7"/>
<path d="M463.65 197.64L461.49 197.64L461.49 184.44L463.65 184.44L463.65 186.96L463.70 186.96Q463.86 185.69 464.78 184.94Q465.69 184.20 467.22 184.20Q469.29 184.20 470.40 185.44Q471.52 186.67 471.52 188.95L471.52 190.08L469.36 190.08L469.36 188.95Q469.36 186.07 466.55 186.07Q465.14 186.07 464.39 186.89Q463.65 187.70 463.65 189.24" fill="white" fill-opacity="0.7"/>
<path d="M476.66 197.64L474.64 197.64L474.64 184.44L476.51 184.44L476.51 186.19L476.56 186.19Q476.68 185.30 477.27 184.75Q477.86 184.20 478.77 184.20Q479.63 184.20 480.23 184.70Q480.83 185.21 481.10 186.07L481.12 186.07Q481.29 185.21 481.88 184.70Q482.46 184.20 483.38 184.20Q484.65 184.20 485.40 185.15Q486.16 186.10 486.16 187.61L486.16 197.64L484.14 197.64L484.14 187.58Q484.14 186.79 483.76 186.32Q483.38 185.86 482.70 185.86Q482.06 185.86 481.67 186.31Q481.29 186.77 481.29 187.56L481.29 197.64L479.51 197.64L479.51 187.58Q479.51 186.79 479.13 186.32Q478.74 185.86 478.10 185.86Q477.42 185.86 477.04 186.31Q476.66 186.77 476.66 187.56" fill="white" fill-opacity="0.7"/>
<path d="M493.65 197.88Q491.61 197.88 490.41 196.74Q489.21 195.60 489.21 193.75Q489.21 192.53 489.76 191.62Q490.31 190.70 491.30 190.19Q492.28 189.67 493.55 189.67L497.63 189.67L497.63 188.64Q497.63 186.07 494.82 186.07Q493.58 186.07 492.81 186.53Q492.04 186.98 491.99 187.80L489.83 187.80Q489.95 186.24 491.28 185.22Q492.62 184.20 494.82 184.20Q497.22 184.20 498.51 185.35Q499.79 186.50 499.79 188.57L499.79 197.64L497.66 197.64L497.66 195.24L497.61 195.24Q497.42 196.46 496.38 197.17Q495.35 197.88 493.65 197.88M494.18 196.06Q495.76 196.06 496.70 195.29Q497.63 194.52 497.63 193.20L497.63 191.35L493.79 191.35Q492.74 191.35 492.08 191.99Q491.42 192.62 491.42 193.68Q491.42 194.78 492.15 195.42Q492.88 196.06 494.18 196.06" fill="white" fill-opacity="0.7"/>
<path d="M514.36 197.64L510.52 197.64Q508.89 197.64 507.90 196.69Q506.92 195.74 506.92 194.16L506.92 186.41L503.13 186.41L503.13 184.44L506.92 184.44L506.92 180.72L509.08 180.72L509.08 184.44L514.48 184.44L514.48 186.41L509.08 186.41L509.08 194.16Q509.08 194.83 509.48 195.25Q509.87 195.67 510.52 195.67L514.36 195.67" fill="white" fill-opacity="0.7"/>
<path d="M529.72 197.64L518.44 197.64L518.44 195.67L523.12 195.67L523.12 186.41L518.92 186.41L518.92 184.44L525.28 184.44L525.28 195.67L529.72 195.67L529.72 197.64M523.96 182.06Q523.17 182.06 522.71 181.66Q522.26 181.25 522.26 180.55Q522.26 179.83 522.71 179.41Q523.17 178.99 523.96 178.99Q524.75 178.99 525.21 179.41Q525.66 179.83 525.66 180.55Q525.66 181.25 525.21 181.66Q524.75 182.06 523.96 182.06" fill="white" fill-opacity="0.7"/>
<path d="M538 197.83Q535.62 197.83 534.22 196.44Q532.82 195.05 532.82 192.55L532.82 189.53Q532.82 187.01 534.21 185.63Q535.60 184.25 538 184.25Q540.40 184.25 541.79 185.63Q543.18 187.01 543.18 189.53L543.18 192.55Q543.18 195.05 541.78 196.44Q540.38 197.83 538 197.83M538 195.91Q539.42 195.91 540.22 195.12Q541.02 194.33 541.02 192.79L541.02 189.29Q541.02 187.75 540.22 186.96Q539.42 186.17 538 186.17Q536.61 186.17 535.79 186.96Q534.98 187.75 534.98 189.29L534.98 192.79Q534.98 194.33 535.79 195.12Q536.61 195.91 538 195.91" fill="white" fill-opacity="0.7"/>
<path d="M549.57 197.64L547.41 197.64L547.41 184.44L549.57 184.44L549.57 186.96L549.59 186.96Q549.76 185.64 550.67 184.92Q551.58 184.20 553.10 184.20Q555.09 184.20 556.26 185.42Q557.44 186.65 557.44 188.76L557.44 197.64L555.28 197.64L555.28 189.14Q555.28 187.63 554.52 186.83Q553.77 186.02 552.47 186.02Q551.13 186.02 550.35 186.86Q549.57 187.70 549.57 189.24" fill="white" fill-opacity="0.7"/>
<path d="M566.80 197.88Q565.91 197.88 565.37 197.35Q564.83 196.82 564.83 195.98Q564.83 195.10 565.37 194.54Q565.91 193.99 566.80 193.99Q567.69 193.99 568.23 194.54Q568.77 195.10 568.77 195.98Q568.77 196.82 568.23 197.35Q567.69 197.88 566.80 197.88" fill="white" fill-opacity="0.7"/>
<path d="M80.05 136.06L70.54 136.06L70.54 65.98L80.05 65.98L80.05 95.55L101.55 95.55L101.55 65.98L111.06 65.98L111.06 136.06L101.55 136.06L101.55 104.19L80.05 104.19L80.05 136.06M133.71 136.06L124.02 136.06L142.16 65.98L154.74 65.98L172.78 136.06L163.09 136.06L158.67 117.82L138.13 117.82L133.71 136.06M145.14 88.92L140.05 109.95L156.75 109.95L151.76 89.02Q150.32 83.26 149.46 79.23Q148.59 75.20 148.40 73.76Q148.21 75.20 147.34 79.23Q146.48 83.26 145.14 88.92M230.19 136.06L189.49 136.06L189.49 65.98L198.99 65.98L198.99 127.42L230.19 127.42L230.19 136.06M263.60 137.02Q254 137.02 248.43 131.45Q242.86 125.88 242.86 115.71L242.86 86.24Q242.86 76.16 248.43 70.59Q254 65.02 263.60 65.02Q273.20 65.02 278.77 70.54Q284.34 76.06 284.34 86.24L284.34 115.71Q284.34 125.88 278.77 131.45Q273.20 137.02 263.60 137.02M263.60 128.57Q268.98 128.57 271.90 125.50Q274.83 122.43 274.83 116.67L274.83 85.28Q274.83 79.61 271.95 76.54Q269.07 73.47 263.60 73.47Q258.13 73.47 255.25 76.54Q252.37 79.61 252.37 85.28L252.37 116.67Q252.37 122.43 255.30 125.50Q258.22 128.57 263.60 128.57M306.51 136.06L296.82 136.06L314.96 65.98L327.54 65.98L345.58 136.06L335.89 136.06L331.47 117.82L310.93 117.82L306.51 136.06M317.94 88.92L312.85 109.95L329.55 109.95L324.56 89.02Q323.12 83.26 322.26 79.23Q321.39 75.20 321.20 73.76Q321.01 75.20 320.14 79.23Q319.28 83.26 317.94 88.92M367.95 136.06L358.45 136.06L358.45 65.98L381.20 65.98Q387.92 65.98 392.82 68.57Q397.71 71.16 400.40 75.82Q403.09 80.48 403.09 86.91Q403.09 93.24 400.40 97.90Q397.71 102.56 392.77 105.15Q387.82 107.74 381.20 107.74L367.95 107.74L367.95 136.06M367.95 74.43L367.95 99.29L381.20 99.29Q386.77 99.29 390.03 95.88Q393.30 92.48 393.30 86.91Q393.30 81.24 390.03 77.84Q386.77 74.43 381.20 74.43L367.95 74.43M455.50 136.06L417.30 136.06L417.30 127.42L431.60 127.42L431.60 74.62L417.30 74.62L417.30 65.98L455.50 65.98L455.50 74.62L441.20 74.62L441.20 127.42L455.50 127.42L455.50 136.06M538.35 136.06L529.33 136.06L529.33 65.98L542.77 65.98L551.41 96.22L560.43 65.98L573.97 65.98L573.97 136.06L564.85 136.06L564.85 103.90Q564.85 98.81 565.04 92.62Q565.23 86.43 565.57 80.24Q565.90 74.04 566.29 69.05L555.34 104.96L547.28 104.96L536.72 69.92Q537.58 76.92 537.97 85.52Q538.35 94.11 538.35 103.90L538.35 136.06M630.51 136.06L589.71 136.06L589.71 65.98L630.51 65.98L630.51 74.52L599.12 74.52L599.12 95.36L627.15 95.36L627.15 103.61L599.12 103.61L599.12 127.52L630.51 127.52L630.51 136.06M671.60 136.06L662.10 136.06L662.10 74.62L643.09 74.62L643.09 65.98L690.51 65.98L690.51 74.62L671.60 74.62L671.60 136.06M709.71 136.06L700.02 136.06L718.16 65.98L730.74 65.98L748.78 136.06L739.09 136.06L734.67 117.82L714.13 117.82L709.71 136.06M721.14 88.92L716.05 109.95L732.75 109.95L727.76 89.02Q726.32 83.26 725.46 79.23Q724.59 75.20 724.40 73.76Q724.21 75.20 723.34 79.23Q722.48 83.26 721.14 88.92M780.46 136.06L761.65 136.06L761.65 65.98L780.46 65.98Q787.28 65.98 792.32 68.62Q797.36 71.26 800.14 76.01Q802.93 80.76 802.93 87.20L802.93 114.75Q802.93 121.18 800.14 125.98Q797.36 130.78 792.32 133.42Q787.28 136.06 780.46 136.06M771.15 74.43L771.15 127.61L780.46 127.61Q786.51 127.61 789.97 124.16Q793.42 120.70 793.42 114.75L793.42 87.20Q793.42 81.24 789.97 77.84Q786.51 74.43 780.46 74.43L771.15 74.43M824.91 136.06L815.22 136.06L833.36 65.98L845.94 65.98L863.98 136.06L854.29 136.06L849.87 117.82L829.33 117.82L824.91 136.06M836.34 88.92L831.25 109.95L847.95 109.95L842.96 89.02Q841.52 83.26 840.66 79.23Q839.79 75.20 839.60 73.76Q839.41 75.20 838.54 79.23Q837.68 83.26 836.34 88.92MNaN 136.06L892.50 136.06L892.50 74.62L873.49 74.62L873.49 65.98L920.91 65.98L920.91 74.62LNaN 74.62LNaN 136.06M940.11 136.06L930.42 136.06L948.56 65.98L961.14 65.98L979.18 136.06L969.49 136.06L965.07 117.82L944.53 117.82L940.11 136.06M951.54 88.92L946.45 109.95L963.15 109.95L958.16 89.02Q956.72 83.26 955.86 79.23Q954.99 75.20 954.80 73.76Q954.61 75.20 953.74 79.23Q952.88 83.26 951.54 88.92" fill="url(#paint2_linear_0_1)"/>
<g id="Group 1">
<rect id="Rectangle 1" x="26" y="168" width="12" height="184" rx="5" fill="url(#paint3_linear_0_1)" fill-opacity="0.9"/>
</g>
<g id="Group 1_2">
<rect id="Rectangle 2" x="26" y="38" width="12" height="119" rx="5" fill="url(#paint4_linear_0_1)" fill-opacity="0.9"/>
</g>
<ellipse id="Ellipse 1" cx="148.5" cy="573" rx="215.5" ry="214" fill="url(#paint5_linear_0_1)" fill-opacity="0.4"/>
<rect id="Rectangle 3" x="1229" y="48" width="300" height="300" rx="25" fill="#FFFBFB" fill-opacity="0.9"/>
<g id="placeholder-logo">
<g id="Group">
<path id="svg_1" fill-rule="evenodd" clip-rule="evenodd" d="M1373.29 175.545C1367.99 175.545 1363.53 167.016 1362.27 155.475H1349.23C1346.45 155.475 1344.08 160.204 1343.62 166.655L1343.15 173.255C1342.71 179.52 1341.36 184.972 1339.45 188.925C1341.36 192.878 1342.71 198.33 1343.15 204.595L1343.62 211.195C1344.08 217.646 1346.45 222.375 1349.23 222.375H1350.89C1352.16 210.834 1356.61 202.305 1361.91 202.305C1368.19 202.305 1373.29 214.286 1373.29 229.065C1373.29 243.844 1368.19 255.825 1361.91 255.825C1356.61 255.825 1352.16 247.296 1350.89 235.755H1349.23C1343.67 235.755 1338.92 226.298 1338.01 213.395L1337.54 206.795C1337.08 200.344 1334.71 195.615 1331.93 195.615H1327.42C1326.16 207.156 1321.71 215.685 1316.41 215.685C1311.11 215.685 1306.65 207.156 1305.39 195.615H1298.98C1297.72 207.156 1293.27 215.685 1287.97 215.685C1281.68 215.685 1276.59 203.704 1276.59 188.925C1276.59 174.146 1281.68 162.165 1287.97 162.165C1293.27 162.165 1297.72 170.694 1298.98 182.235H1305.39C1306.65 170.694 1311.11 162.165 1316.41 162.165C1321.71 162.165 1326.16 170.694 1327.42 182.235H1331.93C1334.71 182.235 1337.08 177.506 1337.54 171.055L1338.01 164.455C1338.92 151.552 1343.67 142.095 1349.23 142.095H1362.27C1363.53 130.554 1367.99 122.025 1373.29 122.025C1379.57 122.025 1384.66 134.006 1384.66 148.785C1384.66 163.564 1379.57 175.545 1373.29 175.545ZM1373.29 162.165C1376.43 162.165 1378.97 156.174 1378.97 148.785C1378.97 141.396 1376.43 135.405 1373.29 135.405C1370.14 135.405 1367.6 141.396 1367.6 148.785C1367.6 156.174 1370.14 162.165 1373.29 162.165ZM1287.97 202.305C1291.11 202.305 1293.65 196.314 1293.65 188.925C1293.65 181.536 1291.11 175.545 1287.97 175.545C1284.82 175.545 1282.28 181.536 1282.28 188.925C1282.28 196.314 1284.82 202.305 1287.97 202.305ZM1322.09 188.925C1322.09 196.314 1319.55 202.305 1316.41 202.305C1313.26 202.305 1310.72 196.314 1310.72 188.925C1310.72 181.536 1313.26 175.545 1316.41 175.545C1319.55 175.545 1322.09 181.536 1322.09 188.925ZM1367.6 229.065C1367.6 236.454 1365.05 242.445 1361.91 242.445C1358.77 242.445 1356.22 236.454 1356.22 229.065C1356.22 221.676 1358.77 215.685 1361.91 215.685C1365.05 215.685 1367.6 221.676 1367.6 229.065Z" fill="#EA4B71"/>
<path id="svg_2" fill-rule="evenodd" clip-rule="evenodd" d="M1452.93 179.879V179.242C1454.91 176.904 1456.9 172.866 1456.9 164.896C1456.9 153.418 1452.88 146.51 1447.33 146.51C1441.65 146.51 1437.59 153.843 1437.59 165.107C1437.59 172.76 1439.48 176.904 1441.56 179.242V179.879C1439.26 181.792 1436.51 187.531 1436.51 197.096C1436.51 208.678 1440.57 216.755 1447.29 216.755C1454.01 216.755 1457.93 208.678 1457.93 197.096C1457.93 187.531 1455.23 181.898 1452.93 179.879ZM1447.29 156.288C1449.54 156.288 1451.21 159.687 1451.21 165.426C1451.21 171.165 1449.5 174.566 1447.29 174.566C1445.08 174.566 1443.23 171.165 1443.23 165.426C1443.23 159.582 1444.99 156.288 1447.29 156.288ZM1447.29 206.553C1444.67 206.553 1442.55 202.622 1442.55 195.926C1442.55 189.869 1444.31 185.299 1447.24 185.299C1450.13 185.299 1451.89 189.762 1451.89 196.139C1451.89 202.622 1449.86 206.553 1447.29 206.553Z" fill="#101330"/>
<path id="svg_3" d="M1464.89 215.693H1470.66V186.893C1470.66 177.435 1473.1 173.29 1475.85 173.29C1478.56 173.29 1480.68 177.542 1480.68 186.256V215.693H1486.45V183.493C1486.45 169.571 1483.02 161.495 1477.66 161.495C1474.27 161.495 1472.38 164.683 1471.03 168.827H1470.66L1470.17 162.557H1464.89V215.693Z" fill="#101330"/>
<path id="svg_4" d="M1413.78 215.693H1408.01V162.557H1413.29L1413.78 168.827H1414.15C1415.5 164.683 1417.39 161.495 1420.78 161.495C1426.14 161.495 1429.57 169.571 1429.57 183.493V215.693H1423.8V186.256C1423.8 177.542 1421.68 173.29 1418.97 173.29C1416.22 173.29 1413.78 177.435 1413.78 186.893V215.693Z" fill="#101330"/>
</g>
</g>
</g>
<defs>
<linearGradient id="paint0_linear_0_1" x1="0" y1="198" x2="1584" y2="198" gradientUnits="userSpaceOnUse">
<stop stop-color="#3D052C"/>
<stop offset="1"/>
</linearGradient>
<linearGradient id="paint1_linear_0_1" x1="323" y1="-224" x2="323" y2="352" gradientUnits="userSpaceOnUse">
<stop stop-color="#28F6F2" stop-opacity="0.4"/>
<stop offset="1" stop-color="#17908E" stop-opacity="0.7"/>
</linearGradient>
<linearGradient id="paint2_linear_0_1" x1="148.5" y1="38" x2="148.5" y2="140" gradientUnits="userSpaceOnUse">
<stop stop-color="white"/>
<stop offset="1" stop-color="#999999"/>
</linearGradient>
<linearGradient id="paint3_linear_0_1" x1="38" y1="260" x2="26" y2="260" gradientUnits="userSpaceOnUse">
<stop stop-color="#D9D9D9"/>
<stop offset="1" stop-color="#737373"/>
</linearGradient>
<linearGradient id="paint4_linear_0_1" x1="38" y1="97.5" x2="26" y2="97.5" gradientUnits="userSpaceOnUse">
<stop stop-color="#D9D9D9"/>
<stop offset="1" stop-color="#737373"/>
</linearGradient>
<linearGradient id="paint5_linear_0_1" x1="27.5" y1="434.5" x2="148.5" y2="787" gradientUnits="userSpaceOnUse">
<stop stop-color="#2E21BC"/>
<stop offset="1" stop-color="#150F56"/>
</linearGradient>
<clipPath id="clip0_0_1">
<rect width="1584" height="396" fill="white"/>
</clipPath>
</defs>
</svg>
